<svg version="1.2" xmlns="http://www.w3.org/2000/svg" viewBox="0 0 3093 701" width="3093" height="701">
	<title>logo-svg</title>
	<style>
		.s0 { fill: #8bb8f1 } 
		.s1 { fill: #000000 } 
		.s2 { fill: #010101 } 
		.s3 { fill: #8cb8f1 } 
		.s4 { fill: #a7a7a7 } 
		.s5 { fill: #a2a2a2 } 
		.s6 { fill: #b8b8b8 } 
		.s7 { fill: #fefefe } 
	</style>
	<path id="Layer" class="s0" d="m1171.7 427.3c7.6 39.1 25.3 71.1 60.1 91.7 11.2 6.7 23.6 10.4 36.9 11.1 5.5 0.3 10.3-1.2 14.3-4.7 6.6-5.7 12.9-11.7 18.8-17.1 0 36.8 0 74.3 0 111.7-1.6 0.6-2.1 1-2.7 1-40.5 2-77.6-6.7-109.3-33.5-25.8-21.9-45.9-48.2-61.8-77.7-7.2-13.3-13.1-27.3-19.6-41-0.3-0.5-0.7-1-1.4-2.2-4.3 5.5-8.5 10.6-12.5 15.8-9.4 11.9-18.8 23.7-27.9 35.8-1.6 2.1-2.4 5.1-2.4 7.8-0.2 25.6-0.1 51.3-0.2 77 0 1.8 0 3.5 0 6-33-0.9-65.5-1.8-98.2-2.8 0-177.5 0-354.5 0-531.9 33-0.8 65.2-1.6 98.3-2.3 0 111.6 0 222.8 0 334q0.8 0.2 1.6 0.3c0.8-1.7 1.6-3.5 2.3-5.3 17.9-44.8 41-86.7 71.3-124.3 25.9-32.1 55.9-59.4 93.8-76.9 22.8-10.5 46.5-17.9 70.9-23.6 1.1-0.2 2.3 0 3.4 0 0 38 0 75.9 0 113.8q-0.9 0.6-1.7 1.1c-1.6-2-3.2-4-4.9-5.9-12.7-14.7-27.9-17.9-46.3-11.6-34.8 11.9-58.6 35.3-73.3 68.4-8.6 19.4-12.5 39.9-12 61.1 0.2 8 1.5 15.9 2.5 24.2z"/>
	<path id="Layer" class="s0" d="m572.1 398c0-44.1 0-87.7 0-131.6 2-0.1 3.5-0.3 4.9-0.3 24.4 0 48.7 0.1 73-0.1 4.2-0.1 5.5 1.5 5.9 5.2 2.3 19.3 4.8 38.6 7.2 58.1 3.2-6.9 5.8-13.7 9.5-20 16-27.3 40.4-42.7 71.1-48.1 25.9-4.5 51.5-2.9 76.2 6 43.1 15.5 68.2 46.2 75 91.3 1.6 10.5 2 21.2 2 31.8 0.2 70.3 0.1 140.7 0.1 211 0 2 0 3.9 0 6.3-32.9 0-65.5 0-98.8 0q0-3.1 0-6.3c-0.1-63.8 0.1-127.6-0.3-191.4-0.1-18.4-5.1-35.7-18-49.5-14.3-15.3-32.7-19.5-52.6-16.9-30.3 4.1-44.9 25-52 52.2-2.8 10.5-4.1 21.6-4.2 32.5-0.4 57.7-0.2 115.3-0.2 173 0 2 0 3.9 0 6.4-32.8 0-65.4 0-98.8 0 0-69.6 0-139.4 0-209.6z"/>
	<path id="Layer" class="s1" d="m2426.4 472c0 37.8 0 75.1 0 112.7-27.6 0-55 0-82.9 0-2.6-20.6-5.2-41.3-8-63-3.3 7-5.7 13.2-9 19-17.3 30.5-44.4 46-78.4 50.2-25.6 3.2-51 0.9-75-9-41-16.9-64-47.9-70.1-91.5-1-7.2-1.2-14.6-1.2-21.9-0.1-73.3 0-146.6 0-220 0-1.6 0-3.2 0-5.1 32.8 0 65.2 0 98.3 0q0 2.9 0 5.8 0 91.2 0.1 182.5c0 13.2 1.3 26.2 6 38.7 9.3 25 31.5 39.4 58.4 37.9 27.7-1.5 46.7-16.7 56.5-45 5.2-15.1 6.8-30.8 6.8-46.7q0-83.7 0-167.4c0-1.9 0-3.7 0-5.8 32.9 0 65.5 0 98.5 0 0 76.2 0 152.2 0 228.6z"/>
	<path id="Layer" fill-rule="evenodd" class="s2" d="m3055.9 494c0 30.5 0 60.4 0 90.7-27.7 0-55.1 0-83 0-2.4-13.7-4.8-27.5-7.4-42.5-2 3.1-3.6 5.5-5.1 7.8-15.9 23.9-38.2 36.7-66.4 40.3-27.2 3.4-53.9 2.8-79.4-8.4-30.7-13.5-48-37.5-53.5-70.1-3.4-19.9-2.5-39.5 5.4-58.4 11.5-27.1 32.3-44.6 58.4-56.5 29.1-13.4 60.1-18 91.7-18.8 13.3-0.4 26.6-0.1 40-0.1 3.5-30.6-11.6-51.3-39.4-57.9-24.4-5.8-48.7-2.8-72.7 2.4-18.9 4.2-37.1 10.5-54.4 20.6-1-12.8-2-25.1-3-37.4-0.9-12.7-1.7-25.3-2.9-37.9-0.3-3.2 0.7-4.7 3.5-6.1 19.8-10.6 41.2-16.6 63.2-20.7 32.2-6 64.6-7 96.9-1.9 29.8 4.8 57.4 14.7 78.5 37.7 16.5 17.7 24.8 39.2 27.6 62.9 1.4 12 1.8 24.2 1.9 36.3 0.2 39.2 0.1 78.3 0.1 118zm-191.9-30.4c-0.8 1.7-1.6 3.3-2.3 5-6.5 16.1-2.2 35.9 10 45.7 20 16.1 50.1 13.3 67.1-6.1 18.2-20.8 19.6-45.6 18.1-71.3-16.9-1.8-33.5-2.9-50 0.3-17.3 3.2-32.7 9.9-42.9 26.4z"/>
	<path id="Layer" fill-rule="evenodd" class="s2" d="m1924.3 359.9c-4-22.6-19.3-36.8-43.6-40.9-29.5-5-58.1-0.2-86.1 8.5-12.5 3.9-24.3 9.5-36.4 14.3-1.4-17.6-2.8-36-4.2-54.4-0.4-6.3-0.5-12.7-1.4-18.9-0.6-3.9 0.8-5.6 4-7.3 16.8-8.6 34.7-14.2 53.1-18.2 35.3-7.8 70.9-9.4 106.7-3.8 25.9 4 50.3 12.4 70.6 30.1 20.7 18.3 31.3 41.9 34.8 68.7 1.6 11.7 2.1 23.6 2.1 35.4 0.2 68.5 0.1 137 0.1 205.4 0 1.9 0 3.7 0 5.9-27.5 0-54.9 0-82.9 0-2.4-13.8-4.8-27.8-7.3-42.3-3.3 4.6-6.2 9-9.3 13.2-15.7 21-37.1 31.5-62.7 34.7-27 3.4-53.6 2.8-78.9-8.4-31.3-13.7-48.7-38.3-53.8-71.6-3.9-25-1-49.1 12.9-71 12.5-19.6 30.2-32.9 51.1-42.4 29-13.3 59.8-18 91.2-18.8 11.8-0.3 23.7 0.6 35.5 0.9 1.8 0.1 3.6 0.1 6 0.1-0.5-6.6-0.9-12.7-1.5-19.2zm-3.2 123.6c5.2-15.1 4.4-30.7 4.3-47.3-12.3-0.2-24.3-1.1-36.2-0.6-16.6 0.7-32.5 4.5-46.1 15.2-17.2 13.4-21.5 39.1-9.2 56.8 12 17.3 41.5 22.5 60.3 11 13.3-8.1 21.5-20.1 26.9-35.1z"/>
	<path id="Layer" class="s2" d="m1384.5 578.8c0-1.3 0.1-2.6 0.2-4.7 0.1-9.7 0.1-18.6 0.2-27.5q0-23.3 0.1-46.6c13.1-0.3 26.3-0.8 39.4-0.9 13.7-0.2 27.3-0.3 41-0.1 28.8 0.5 51-12 67.8-34.6 28.7-38.6 29.1-95.2 1-134.2-16.6-23-38.9-35.7-67.9-35.3-26.5 0.4-53 0.2-80.2-0.2-0.8-39.6-1-78.7-1.1-117.8 12.6-0.2 25.3-0.6 37.9-0.7 15.4-0.2 30.7 0.1 46-0.3 45.1-1.1 82.7 16 114.1 47.5 31.3 31.4 50.4 69.6 59.7 112.5 4.3 19.6 7.7 39.9 7.5 59.8-1 64.5-19.2 123.3-64.4 171.4-20.3 21.6-44.4 37.9-73.4 45.2-13.2 3.4-27.2 4.9-40.9 5.5-21.8 0.9-43.6 0.3-66.4 0.4-7.2-0.1-13.6-0.1-20.6-0.1 0-10.3 0-19.8 0-29.3 0-1.6 0.1-3.2 0.2-5.6 0-2-0.1-3.2-0.2-4.4z"/>
	<path id="Layer" class="s0" d="m42 608c-7.1 0-13.7 0-20.6 0 0-162.8 0-325 0-487.6 32.7 0 65.2 0 98.4 0 0 135.9 0 271.7 0 408.3 72.6 0 144.6 0 216.9 0 0 26.6 0 52.6 0 79.3-98.1 0-196.1 0-294.7 0z"/>
	<path id="Layer" class="s2" d="m2639.3 251.3c24.8-16.5 51.3-18.7 79.2-11.1 2.5 0.7 4.6 1.4 4.4 5.2-1.5 25.5-2.5 50.9-3.8 76.4 0 0.8-0.2 1.5-0.3 2.7-12.5-5.1-25.4-6.3-38.4-6.3-28.9-0.1-49.8 13.8-61.2 40.5-8.3 19.5-10.7 39.9-10.6 60.9 0.3 49.9 0.1 99.7 0.1 149.5 0 5.1 0 10.3 0 15.6-33 0-65.6 0-98.4 0 0-113.7 0-227.4 0-341.3 27.5 0 54.7 0 82.6 0 2.4 18.3 4.8 36.7 7.5 56.6 7.9-21.2 20.6-37 38.9-48.7z"/>
	<path id="Layer" class="s3" d="m443 608c-17.8 0-35.1 0-52.7 0 0-114.1 0-227.6 0-341.6 1.8-0.1 3.4-0.3 5-0.3 29.3 0 58.6 0.1 87.9-0.1 4.4 0 5.8 1.1 5.8 5.6-0.2 110.5-0.1 220.9-0.1 331.4 0 1.5-0.2 2.9-0.3 5-15.2 0-30.2 0-45.6 0z"/>
	<path id="Layer" class="s0" d="m437.2 230.9c-20.7-1.9-37.9-9.2-48.5-27.6-11.8-20.5-6.3-44.4 13.2-59.6 22.9-17.7 59.5-15.7 79.8 4.5 21.2 21 18.3 54-6.1 71.1-11.4 8-24.2 11.5-38.4 11.6z"/>
	<path id="Layer" class="s4" d="m1384.7 176.7c0.4 39.3 0.6 78.4 1 118-0.5 0.4-1.3 0.4-2.3-0.1-0.4-1.5-0.4-2.5-0.4-3.6 0.1-1 0.2-2.1 0.1-4-0.1-1.9-0.1-2.9-0.1-4 0.1-1.4 0.2-2.8 0.1-5-0.1-1.9-0.1-2.9-0.1-4 0.1-1.7 0.2-3.4 0.1-6-0.1-1.9-0.1-2.9-0.1-4 0.1-1.7 0.1-3.4 0.1-6-0.1-1.9-0.1-2.9-0.1-4 0.1-1.4 0.1-2.8 0.1-5-0.1-1.9-0.1-2.9-0.1-4 0.1-1.4 0.1-2.8 0.1-5-0.1-1.9-0.1-2.9-0.1-4 0.1-1.4 0.1-2.8 0.1-5-0.1-1.9-0.1-2.9-0.1-4 0.1-1.4 0.1-2.8 0.1-5-0.1-1.9-0.1-2.9-0.1-4 0-1.1 0.1-2.1 0.1-4-0.1-1.9-0.1-2.9-0.1-4 0-1.4 0.1-2.8 0.1-5-0.1-1.9-0.1-3-0.1-4 0-1.1 0.1-2.1 0.1-4-0.1-1.9-0.1-3-0.1-4 0-1.1 0.1-2.1 0.1-4-0.1-1.9-0.1-3-0.1-4.1 0.7-3-0.4-4.1-3.6-4q-12.2 0.2-24.3-0.1c-1.3 0-2.6-1-3.9-1.6 1.3-0.7 2.7-2 4-2 9.8-0.4 19.5-0.5 29.5-0.5z"/>
	<path id="Layer" class="s5" d="m1384.2 588.7c0.3 9.6 0.3 19.1 0.3 29.4 7 0 13.4 0 20.2 0.1-0.9 0.6-2.3 1.6-3.7 1.6q-26.2 0.2-52.4 0c-1.5 0-2.9-1.1-4.4-1.7 1.5-0.7 3.1-1.9 4.6-1.9 10.4-0.2 20.7-0.1 31-0.1 2.6 0 4.9 0 3.5-4.3-0.3-1.7-0.3-2.7-0.3-3.7 0.2-1.6 0.4-3.1 0.3-5.3-0.3-1.7-0.3-2.7-0.3-3.7 0.2-1.9 0.4-3.8 0.3-6.3-0.3-1.7-0.3-2.7-0.3-3.7 0.4-0.1 0.7-0.3 1.2-0.4z"/>
	<path id="Layer" class="s6" d="m1383 582.9c-12.1 0-24.3 0.1-36.4 0-1.2 0-2.3-1.1-3.5-1.7 1.2-0.7 2.3-2.1 3.5-2.1 11.8-0.2 23.7-0.1 36 0.3 0.4 1.5 0.4 2.5 0.4 3.5z"/>
	<path id="Layer" class="s6" d="m1383 573.9c-11.8 0-23.6 0.1-35.4 0-1.2 0-2.3-1.1-3.5-1.7 1.2-0.7 2.3-2.1 3.5-2.1 11.5-0.2 23-0.1 35 0.3 0.4 1.5 0.4 2.5 0.4 3.5z"/>
	<path id="Layer" class="s6" d="m1383 513.9c-11.6 0-23.3 0.1-34.9 0-1.4 0-2.7-1.1-4-1.7 1.3-0.7 2.7-2.1 4-2.1 11.3-0.2 22.7-0.1 34.5 0.3 0.4 1.5 0.4 2.5 0.4 3.5z"/>
	<path id="Layer" class="s6" d="m1383 546.9c-11.6 0-23.3 0.1-34.9 0-1.4 0-2.7-1.1-4-1.7 1.3-0.7 2.7-2.1 4-2.1 11.3-0.2 22.7-0.1 34.5 0.3 0.4 1.5 0.4 2.5 0.4 3.5z"/>
	<path id="Layer" class="s6" d="m1383 555.9c-11.8 0-23.6 0.1-35.4 0-1.2 0-2.3-1.1-3.5-1.7 1.2-0.7 2.3-2.1 3.5-2.1 11.5-0.2 23-0.1 35 0.3 0.4 1.5 0.4 2.5 0.4 3.5z"/>
	<path id="Layer" class="s6" d="m1383 564.9c-11.8 0-23.6 0.1-35.4 0-1.2 0-2.3-1.1-3.5-1.7 1.2-0.7 2.3-2.1 3.5-2.1 11.5-0.2 23-0.1 35 0.3 0.4 1.5 0.4 2.5 0.4 3.5z"/>
	<path id="Layer" class="s6" d="m1383 538.9c-11.3 0-22.6 0.1-33.9 0-1.4 0-2.7-1.1-4-1.7 1.3-0.7 2.7-2.1 4-2.1 11-0.2 22-0.1 33.5 0.3 0.4 1.5 0.4 2.5 0.4 3.5z"/>
	<path id="Layer" class="s6" d="m1383 529.9c-11.3 0-22.6 0.1-33.9 0-1.4 0-2.7-1.1-4-1.7 1.3-0.7 2.7-2.1 4-2.1 11-0.2 22-0.1 33.5 0.3 0.4 1.5 0.4 2.5 0.4 3.5z"/>
	<path id="Layer" class="s6" d="m1382.6 599.1c0.4 1 0.4 2 0.4 3.4-11.5 0.4-22.9 0.5-34.4 0.4-1.2 0-2.3-1.1-3.5-1.7 1.2-0.7 2.3-2.1 3.5-2.1 11.2-0.2 22.3-0.1 34 0z"/>
	<path id="Layer" class="s6" d="m1382.6 589.1c0.4 1 0.4 2 0.4 3.4-11.5 0.4-22.9 0.5-34.4 0.4-1.2 0-2.3-1.1-3.5-1.7 1.2-0.7 2.3-2.1 3.5-2.1 11.2-0.2 22.3-0.1 34 0z"/>
	<path id="Layer" class="s6" d="m1383 505.9c-11.3 0-22.6 0.1-33.9 0-1.4 0-2.7-1.1-4-1.7 1.3-0.7 2.7-2.1 4-2.1 11-0.2 22-0.1 33.5 0.3 0.4 1.5 0.4 2.5 0.4 3.5z"/>
	<path id="Layer" class="s6" d="m1382.6 608.1c0.4 1 0.4 2 0.4 3.4-11.1 0.4-22.3 0.5-33.4 0.4-1.2 0-2.3-1.1-3.5-1.7 1.2-0.7 2.3-2.1 3.5-2.1 10.8-0.2 21.7-0.1 33 0z"/>
	<path id="Layer" class="s5" d="m1383.2 506.3c-0.2-1.4-0.2-2.4-0.2-3.8 0.5-1.1 0.9-1.8 1.7-2.5 0.2 15.5 0.2 31 0.2 46.6-0.1 8.9-0.1 17.8-0.3 27.2-0.5 0.4-0.8 0.3-1.3 0.2-0.3-1.1-0.3-2.1-0.3-3.5 0.1-1.9 0.2-3.3 0.2-5.2-0.2-1.4-0.2-2.4-0.2-3.8 0.1-1.9 0.2-3.3 0.2-5.2-0.2-1.4-0.2-2.4-0.2-3.8 0.1-1.8 0.2-3.3 0.2-5.2-0.2-1.4-0.2-2.4-0.2-3.8 0.1-1.5 0.2-2.7 0.2-4.2-0.2-1.4-0.2-2.4-0.2-3.8 0.1-1.9 0.2-3.3 0.2-5.2-0.2-1.4-0.2-2.4-0.2-3.8 0.1-1.5 0.2-2.7 0.2-4.6-0.2-1.8-0.2-2.8-0.2-3.8 0.1-1.1 0.2-2.3 0.2-3.8-0.2-1.4-0.2-2.4-0.2-3.8 0.1-1.5 0.2-2.7 0.2-4.2z"/>
	<path id="Layer" class="s6" d="m1382.6 518.1c0.4 1 0.4 2 0.4 3.4-10.6 0.4-21.3 0.5-31.9 0.4-1.4 0-2.7-1.1-4-1.7 1.3-0.7 2.7-2.1 4-2.1 10.3-0.2 20.7-0.1 31.5 0z"/>
	<path id="Layer" class="s6" d="m1382.5 254c0.5 1.1 0.5 2.1 0.5 3.6-10 0.4-20 0.5-29.9 0.3-1.4 0-2.7-1.1-4-1.7 1.3-0.7 2.7-2.1 4-2.1 9.7-0.2 19.3-0.1 29.4-0.1z"/>
	<path id="Layer" class="s6" d="m1382.6 291c0.4 1.1 0.4 2.1 0.4 3.5-9.8 0.4-19.6 0.5-29.4 0.4-1.2 0-2.3-1.1-3.5-1.7 1.2-0.7 2.3-2.1 3.5-2.1 9.5-0.2 19-0.1 29-0.1z"/>
	<path id="Layer" class="s6" d="m1382.5 245c0.5 1.1 0.5 2.1 0.5 3.6-9.6 0.4-19.3 0.5-28.9 0.3-1.4 0-2.7-1.1-4-1.7 1.3-0.7 2.7-2.1 4-2.1 9.3-0.2 18.6-0.1 28.4-0.1z"/>
	<path id="Layer" class="s6" d="m1382.5 236c0.5 1.1 0.5 2.1 0.5 3.6-9.6 0.4-19.3 0.5-28.9 0.3-1.4 0-2.7-1.1-4-1.7 1.3-0.7 2.7-2.1 4-2.1 9.3-0.2 18.6-0.1 28.4-0.1z"/>
	<path id="Layer" class="s6" d="m1382.5 227c0.5 1.1 0.5 2.1 0.5 3.6-9.7 0.4-19.3 0.5-28.9 0.3-1.4 0-2.7-1.1-4-1.7 1.3-0.7 2.7-2.1 4-2.1 9.3-0.2 18.6-0.1 28.4-0.1z"/>
	<path id="Layer" class="s6" d="m1382.5 218c0.5 1.1 0.5 2.1 0.5 3.6-9.7 0.4-19.3 0.5-28.9 0.3-1.4 0-2.7-1.1-4-1.7 1.3-0.7 2.7-2.1 4-2.1 9.3-0.2 18.6-0.1 28.4-0.1z"/>
	<path id="Layer" class="s6" d="m1382.5 185c0.5 1 0.5 2.1 0.5 3.6-9.7 0.4-19.3 0.5-28.9 0.3-1.4 0-2.7-1.1-4-1.7 1.3-0.7 2.7-2.1 4-2.1 9.3-0.2 18.6-0.1 28.4-0.1z"/>
	<path id="Layer" class="s6" d="m1382.5 274c0.5 1.1 0.5 2.1 0.5 3.6-9.5 0.4-19 0.4-28.4 0.3-1.2 0-2.3-1.1-3.5-1.7 1.2-0.7 2.3-2.1 3.5-2.1 9.2-0.2 18.3-0.1 27.9-0.1z"/>
	<path id="Layer" class="s6" d="m1382.5 264c0.5 1.1 0.5 2.1 0.5 3.6-9.3 0.4-18.6 0.5-27.9 0.3-1.4 0-2.7-1.1-4-1.7 1.3-0.7 2.7-2.1 4-2.1 9-0.2 18-0.1 27.4-0.1z"/>
	<path id="Layer" class="s6" d="m1382.5 210c0.5 1.1 0.5 2.1 0.5 3.6-9.3 0.4-18.6 0.5-27.9 0.3-1.4 0-2.7-1.1-4-1.7 1.3-0.7 2.7-2.1 4-2.1 9-0.2 18-0.1 27.4-0.1z"/>
	<path id="Layer" class="s6" d="m1382.5 201c0.5 1 0.5 2.1 0.5 3.6-9.3 0.4-18.6 0.5-27.9 0.3-1.4 0-2.7-1.1-4-1.7 1.3-0.7 2.7-2.1 4-2.1 9-0.2 18-0.1 27.4-0.1z"/>
	<path id="Layer" class="s6" d="m1382.6 283c0.4 1.1 0.4 2.1 0.4 3.6-9.1 0.4-18.3 0.4-27.4 0.3-1.2 0-2.3-1.1-3.5-1.7 1.2-0.7 2.3-2.1 3.5-2.1 8.8-0.2 17.7-0.1 27-0.1z"/>
	<path id="Layer" class="s6" d="m1382.5 193c0.5 1 0.5 2.1 0.5 3.6-8.7 0.4-17.3 0.5-25.9 0.3-1.4 0-2.7-1.1-4-1.7 1.3-0.7 2.7-2.1 4-2.1 8.3-0.2 16.6-0.1 25.4-0.1z"/>
	<path id="Layer" class="s5" d="m1383.3 583c-0.3-1.1-0.3-2.1-0.3-3.5 0.3-0.5 0.7-0.7 1.2-0.8 0.4 1.3 0.5 2.5 0.4 4.1-0.4 0.4-0.8 0.3-1.3 0.2z"/>
	<path id="Layer" class="s7" d="m2864.2 463.3c10-16.2 25.4-22.9 42.7-26.1 16.5-3.2 33.1-2.1 50-0.3 1.5 25.7 0.1 50.5-18.1 71.3-17 19.4-47.1 22.2-67.1 6.1-12.2-9.8-16.5-29.6-10-45.7 0.7-1.7 1.5-3.3 2.5-5.3z"/>
	<path id="Layer" class="s7" d="m1921 483.9c-5.3 14.6-13.5 26.6-26.8 34.7-18.8 11.5-48.3 6.3-60.3-11-12.3-17.7-8-43.4 9.2-56.8 13.6-10.7 29.5-14.5 46.1-15.2 11.9-0.5 23.9 0.4 36.2 0.6 0.1 16.6 0.9 32.2-4.4 47.7z"/>
</svg>